<mxfile host="app.diagrams.net" modified="2024-03-05T20:51:25.960Z" agent="Mozilla/5.0 (Macintosh; Intel Mac OS X 10.15; rv:123.0) Gecko/20100101 Firefox/123.0" etag="tx45l5s0jCFt11dUwHro" version="24.0.1" type="device">
  <diagram name="Page-1" id="-DQzEnBHqFdn4pmOEsDJ">
    <mxGraphModel dx="1026" dy="573" grid="1" gridSize="10" guides="1" tooltips="1" connect="1" arrows="1" fold="1" page="1" pageScale="1" pageWidth="827" pageHeight="1169" math="0" shadow="0">
      <root>
        <mxCell id="0" />
        <mxCell id="1" parent="0" />
        <mxCell id="iBIGfxX5DyhovjsZKW_E-19" style="edgeStyle=orthogonalEdgeStyle;rounded=0;orthogonalLoop=1;jettySize=auto;html=1;entryX=0.5;entryY=0;entryDx=0;entryDy=0;" edge="1" parent="1" source="iBIGfxX5DyhovjsZKW_E-1" target="iBIGfxX5DyhovjsZKW_E-8">
          <mxGeometry relative="1" as="geometry" />
        </mxCell>
        <mxCell id="iBIGfxX5DyhovjsZKW_E-1" value="START" style="rounded=1;whiteSpace=wrap;html=1;" vertex="1" parent="1">
          <mxGeometry x="240" y="80" width="120" height="60" as="geometry" />
        </mxCell>
        <mxCell id="iBIGfxX5DyhovjsZKW_E-24" style="edgeStyle=orthogonalEdgeStyle;rounded=0;orthogonalLoop=1;jettySize=auto;html=1;entryX=0.5;entryY=0;entryDx=0;entryDy=0;" edge="1" parent="1" source="iBIGfxX5DyhovjsZKW_E-2" target="iBIGfxX5DyhovjsZKW_E-4">
          <mxGeometry relative="1" as="geometry" />
        </mxCell>
        <mxCell id="iBIGfxX5DyhovjsZKW_E-2" value="Create dataframe from dataset" style="rounded=0;whiteSpace=wrap;html=1;" vertex="1" parent="1">
          <mxGeometry x="240" y="340" width="120" height="60" as="geometry" />
        </mxCell>
        <mxCell id="iBIGfxX5DyhovjsZKW_E-27" style="edgeStyle=orthogonalEdgeStyle;rounded=0;orthogonalLoop=1;jettySize=auto;html=1;entryX=0;entryY=0.5;entryDx=0;entryDy=0;" edge="1" parent="1" source="iBIGfxX5DyhovjsZKW_E-3" target="iBIGfxX5DyhovjsZKW_E-5">
          <mxGeometry relative="1" as="geometry" />
        </mxCell>
        <mxCell id="iBIGfxX5DyhovjsZKW_E-3" value="Calculate features from dataset and merge them into dataframe" style="rounded=0;whiteSpace=wrap;html=1;" vertex="1" parent="1">
          <mxGeometry x="240" y="550" width="140" height="60" as="geometry" />
        </mxCell>
        <mxCell id="iBIGfxX5DyhovjsZKW_E-4" value="Define features" style="rounded=0;whiteSpace=wrap;html=1;" vertex="1" parent="1">
          <mxGeometry x="240" y="440" width="120" height="60" as="geometry" />
        </mxCell>
        <mxCell id="iBIGfxX5DyhovjsZKW_E-28" style="edgeStyle=orthogonalEdgeStyle;rounded=0;orthogonalLoop=1;jettySize=auto;html=1;exitX=1;exitY=0.5;exitDx=0;exitDy=0;entryX=0;entryY=0.5;entryDx=0;entryDy=0;" edge="1" parent="1" source="iBIGfxX5DyhovjsZKW_E-5" target="iBIGfxX5DyhovjsZKW_E-10">
          <mxGeometry relative="1" as="geometry" />
        </mxCell>
        <mxCell id="iBIGfxX5DyhovjsZKW_E-5" value="Define target variables as wickets and runs" style="rounded=0;whiteSpace=wrap;html=1;" vertex="1" parent="1">
          <mxGeometry x="414" y="550" width="120" height="60" as="geometry" />
        </mxCell>
        <mxCell id="iBIGfxX5DyhovjsZKW_E-23" style="edgeStyle=orthogonalEdgeStyle;rounded=0;orthogonalLoop=1;jettySize=auto;html=1;exitX=0.5;exitY=1;exitDx=0;exitDy=0;entryX=0.5;entryY=0;entryDx=0;entryDy=0;" edge="1" parent="1" source="iBIGfxX5DyhovjsZKW_E-8" target="iBIGfxX5DyhovjsZKW_E-2">
          <mxGeometry relative="1" as="geometry" />
        </mxCell>
        <mxCell id="iBIGfxX5DyhovjsZKW_E-37" style="edgeStyle=orthogonalEdgeStyle;rounded=0;orthogonalLoop=1;jettySize=auto;html=1;entryX=1;entryY=0.5;entryDx=0;entryDy=0;" edge="1" parent="1" source="iBIGfxX5DyhovjsZKW_E-8" target="iBIGfxX5DyhovjsZKW_E-17">
          <mxGeometry relative="1" as="geometry" />
        </mxCell>
        <mxCell id="iBIGfxX5DyhovjsZKW_E-8" value="&lt;div&gt;Do models&lt;/div&gt;&lt;div&gt;&amp;nbsp;already exist&lt;/div&gt;" style="rhombus;whiteSpace=wrap;html=1;" vertex="1" parent="1">
          <mxGeometry x="245" y="200" width="110" height="110" as="geometry" />
        </mxCell>
        <mxCell id="iBIGfxX5DyhovjsZKW_E-29" style="edgeStyle=orthogonalEdgeStyle;rounded=0;orthogonalLoop=1;jettySize=auto;html=1;entryX=0.5;entryY=0;entryDx=0;entryDy=0;" edge="1" parent="1" source="iBIGfxX5DyhovjsZKW_E-10" target="iBIGfxX5DyhovjsZKW_E-11">
          <mxGeometry relative="1" as="geometry" />
        </mxCell>
        <mxCell id="iBIGfxX5DyhovjsZKW_E-10" value="Define categorical features, (string variables)" style="rounded=0;whiteSpace=wrap;html=1;" vertex="1" parent="1">
          <mxGeometry x="580" y="550" width="120" height="60" as="geometry" />
        </mxCell>
        <mxCell id="iBIGfxX5DyhovjsZKW_E-30" style="edgeStyle=orthogonalEdgeStyle;rounded=0;orthogonalLoop=1;jettySize=auto;html=1;entryX=0.5;entryY=0;entryDx=0;entryDy=0;" edge="1" parent="1" source="iBIGfxX5DyhovjsZKW_E-11" target="iBIGfxX5DyhovjsZKW_E-12">
          <mxGeometry relative="1" as="geometry" />
        </mxCell>
        <mxCell id="iBIGfxX5DyhovjsZKW_E-11" value="Preprocess data and encode it into a numerical format" style="rounded=0;whiteSpace=wrap;html=1;" vertex="1" parent="1">
          <mxGeometry x="580" y="640" width="120" height="60" as="geometry" />
        </mxCell>
        <mxCell id="iBIGfxX5DyhovjsZKW_E-31" style="edgeStyle=orthogonalEdgeStyle;rounded=0;orthogonalLoop=1;jettySize=auto;html=1;exitX=0;exitY=0.5;exitDx=0;exitDy=0;entryX=1;entryY=0.5;entryDx=0;entryDy=0;" edge="1" parent="1" source="iBIGfxX5DyhovjsZKW_E-12" target="iBIGfxX5DyhovjsZKW_E-13">
          <mxGeometry relative="1" as="geometry" />
        </mxCell>
        <mxCell id="iBIGfxX5DyhovjsZKW_E-12" value="Define models - regressors for runs and wickets" style="rounded=0;whiteSpace=wrap;html=1;" vertex="1" parent="1">
          <mxGeometry x="580" y="740" width="120" height="60" as="geometry" />
        </mxCell>
        <mxCell id="iBIGfxX5DyhovjsZKW_E-32" style="edgeStyle=orthogonalEdgeStyle;rounded=0;orthogonalLoop=1;jettySize=auto;html=1;exitX=0;exitY=0.5;exitDx=0;exitDy=0;entryX=1;entryY=0.5;entryDx=0;entryDy=0;" edge="1" parent="1" source="iBIGfxX5DyhovjsZKW_E-13" target="iBIGfxX5DyhovjsZKW_E-14">
          <mxGeometry relative="1" as="geometry" />
        </mxCell>
        <mxCell id="iBIGfxX5DyhovjsZKW_E-13" value="Gridsearch for best hyperparameters" style="rounded=0;whiteSpace=wrap;html=1;" vertex="1" parent="1">
          <mxGeometry x="413.5" y="740" width="120" height="60" as="geometry" />
        </mxCell>
        <mxCell id="iBIGfxX5DyhovjsZKW_E-33" style="edgeStyle=orthogonalEdgeStyle;rounded=0;orthogonalLoop=1;jettySize=auto;html=1;exitX=0.5;exitY=1;exitDx=0;exitDy=0;entryX=0.5;entryY=0;entryDx=0;entryDy=0;" edge="1" parent="1" source="iBIGfxX5DyhovjsZKW_E-14" target="iBIGfxX5DyhovjsZKW_E-15">
          <mxGeometry relative="1" as="geometry" />
        </mxCell>
        <mxCell id="iBIGfxX5DyhovjsZKW_E-14" value="&lt;div&gt;Define model with best&amp;nbsp;&lt;/div&gt;&lt;div&gt;hyperparameters&lt;/div&gt;" style="rounded=0;whiteSpace=wrap;html=1;" vertex="1" parent="1">
          <mxGeometry x="245" y="740" width="120" height="60" as="geometry" />
        </mxCell>
        <mxCell id="iBIGfxX5DyhovjsZKW_E-34" style="edgeStyle=orthogonalEdgeStyle;rounded=0;orthogonalLoop=1;jettySize=auto;html=1;exitX=0.5;exitY=1;exitDx=0;exitDy=0;entryX=0.5;entryY=0;entryDx=0;entryDy=0;" edge="1" parent="1" source="iBIGfxX5DyhovjsZKW_E-15" target="iBIGfxX5DyhovjsZKW_E-16">
          <mxGeometry relative="1" as="geometry" />
        </mxCell>
        <mxCell id="iBIGfxX5DyhovjsZKW_E-15" value="Fit models to dataset" style="rounded=0;whiteSpace=wrap;html=1;" vertex="1" parent="1">
          <mxGeometry x="245" y="840" width="120" height="60" as="geometry" />
        </mxCell>
        <mxCell id="iBIGfxX5DyhovjsZKW_E-35" style="edgeStyle=orthogonalEdgeStyle;rounded=0;orthogonalLoop=1;jettySize=auto;html=1;entryX=1;entryY=0.5;entryDx=0;entryDy=0;" edge="1" parent="1" source="iBIGfxX5DyhovjsZKW_E-16" target="iBIGfxX5DyhovjsZKW_E-20">
          <mxGeometry relative="1" as="geometry" />
        </mxCell>
        <mxCell id="iBIGfxX5DyhovjsZKW_E-16" value="Store models as files" style="rounded=0;whiteSpace=wrap;html=1;" vertex="1" parent="1">
          <mxGeometry x="245" y="950" width="120" height="60" as="geometry" />
        </mxCell>
        <mxCell id="iBIGfxX5DyhovjsZKW_E-17" value="Load models from files" style="rounded=0;whiteSpace=wrap;html=1;" vertex="1" parent="1">
          <mxGeometry x="57.5" y="225" width="120" height="60" as="geometry" />
        </mxCell>
        <mxCell id="iBIGfxX5DyhovjsZKW_E-18" value="END" style="rounded=1;whiteSpace=wrap;html=1;" vertex="1" parent="1">
          <mxGeometry x="70" y="1040" width="120" height="60" as="geometry" />
        </mxCell>
        <mxCell id="iBIGfxX5DyhovjsZKW_E-36" style="edgeStyle=orthogonalEdgeStyle;rounded=0;orthogonalLoop=1;jettySize=auto;html=1;exitX=0.5;exitY=1;exitDx=0;exitDy=0;entryX=0.5;entryY=0;entryDx=0;entryDy=0;" edge="1" parent="1" source="iBIGfxX5DyhovjsZKW_E-20" target="iBIGfxX5DyhovjsZKW_E-18">
          <mxGeometry relative="1" as="geometry" />
        </mxCell>
        <mxCell id="iBIGfxX5DyhovjsZKW_E-20" value="Simulate runs and wickets using input features as parameters" style="rounded=0;whiteSpace=wrap;html=1;" vertex="1" parent="1">
          <mxGeometry x="57.5" y="945" width="145" height="70" as="geometry" />
        </mxCell>
        <mxCell id="iBIGfxX5DyhovjsZKW_E-26" style="edgeStyle=orthogonalEdgeStyle;rounded=0;orthogonalLoop=1;jettySize=auto;html=1;entryX=0.429;entryY=0.05;entryDx=0;entryDy=0;entryPerimeter=0;" edge="1" parent="1" source="iBIGfxX5DyhovjsZKW_E-4" target="iBIGfxX5DyhovjsZKW_E-3">
          <mxGeometry relative="1" as="geometry" />
        </mxCell>
        <mxCell id="iBIGfxX5DyhovjsZKW_E-38" style="edgeStyle=orthogonalEdgeStyle;rounded=0;orthogonalLoop=1;jettySize=auto;html=1;entryX=0.41;entryY=0;entryDx=0;entryDy=0;entryPerimeter=0;" edge="1" parent="1" source="iBIGfxX5DyhovjsZKW_E-17" target="iBIGfxX5DyhovjsZKW_E-20">
          <mxGeometry relative="1" as="geometry" />
        </mxCell>
        <mxCell id="iBIGfxX5DyhovjsZKW_E-39" value="No" style="text;html=1;align=center;verticalAlign=middle;whiteSpace=wrap;rounded=0;" vertex="1" parent="1">
          <mxGeometry x="305" y="310" width="60" height="30" as="geometry" />
        </mxCell>
        <mxCell id="iBIGfxX5DyhovjsZKW_E-40" value="Yes" style="text;html=1;align=center;verticalAlign=middle;whiteSpace=wrap;rounded=0;" vertex="1" parent="1">
          <mxGeometry x="185" y="225" width="60" height="30" as="geometry" />
        </mxCell>
      </root>
    </mxGraphModel>
  </diagram>
</mxfile>
